<svg width="80" height="80" viewBox="0 0 80 80" fill="none" xmlns="http://www.w3.org/2000/svg">
<path d="M72.4992 19.8225L53.1549 0.47828C52.8485 0.172031 52.4333 0 52.0003 0H14.9571C10.5818 0 7.02246 3.55968 7.02246 7.93498V72.0652C7.02246 76.4403 10.582 80 14.9573 80H65.0427C69.418 80 72.9775 76.4405 72.9775 72.0652V20.977C72.9773 20.544 72.8053 20.1287 72.4992 19.8225ZM53.6335 5.57483L67.4033 19.3445H58.303C57.0555 19.3445 55.8827 18.8587 55.0008 17.9768C54.1191 17.0951 53.6333 15.9225 53.6335 14.6751V5.57483ZM69.712 72.065C69.712 74.6398 67.6173 76.7345 65.0427 76.7345H14.9571C12.3823 76.7345 10.2876 74.6398 10.2876 72.065V7.93498C10.2878 5.36015 12.3825 3.26531 14.9571 3.26531H50.3682V14.6748C50.3678 16.7943 51.1932 18.787 52.6917 20.2856C54.1905 21.7843 56.1832 22.6096 58.3028 22.6096H69.7119L69.712 72.065Z" fill="#382D2A"/>
<path d="M42.983 54.9205H42.2521C41.3505 54.9205 40.6194 55.6515 40.6194 56.5532C40.6194 57.4549 41.3505 58.1858 42.2521 58.1858H42.983C43.8846 58.1858 44.6157 57.4549 44.6157 56.5532C44.6157 55.6515 43.8846 54.9205 42.983 54.9205Z" fill="#382D2A"/>
<path d="M36.9702 54.9205H21.1121C20.2106 54.9205 19.4795 55.6515 19.4795 56.5532C19.4795 57.4549 20.2106 58.1858 21.1121 58.1858H36.9702C37.8718 58.1858 38.6029 57.4549 38.6029 56.5532C38.6029 55.6515 37.872 54.9205 36.9702 54.9205Z" fill="#382D2A"/>
<path d="M58.8877 47.4603H21.1123C20.2108 47.4603 19.4797 48.1913 19.4797 49.093C19.4797 49.9947 20.2108 50.7256 21.1123 50.7256H58.8877C59.7893 50.7256 60.5204 49.9947 60.5204 49.093C60.5204 48.1913 59.7893 47.4603 58.8877 47.4603Z" fill="#382D2A"/>
<path d="M58.8877 39.9999H21.1123C20.2108 39.9999 19.4797 40.7308 19.4797 41.6325C19.4797 42.5342 20.2108 43.2652 21.1123 43.2652H58.8877C59.7893 43.2652 60.5204 42.5342 60.5204 41.6325C60.5204 40.7308 59.7893 39.9999 58.8877 39.9999Z" fill="#382D2A"/>
<path d="M58.8877 32.5398H21.1123C20.2108 32.5398 19.4797 33.2707 19.4797 34.1724C19.4797 35.0742 20.2108 35.8051 21.1123 35.8051H58.8877C59.7893 35.8051 60.5204 35.0742 60.5204 34.1724C60.5204 33.2707 59.7893 32.5398 58.8877 32.5398Z" fill="#382D2A"/>
</svg>
