<svg width="40" height="40" viewBox="0 0 40 40" fill="none" xmlns="http://www.w3.org/2000/svg">
<path d="M9.39926 1.24536C10.678 1.25106 11.8211 1.64145 12.6786 2.4988L34.2321 24.0524C33.902 24.0139 33.5743 24.0045 33.2508 24.0233C33.0083 24.0374 32.7682 24.0674 32.5313 24.1124C31.45 24.3179 30.4518 24.8137 29.5638 25.4963C27.4414 23.6127 18.479 16.144 18.479 16.144C21.6466 19.7953 25.3739 23.1668 27.8959 27.1408C27.8496 27.1982 27.8025 27.2549 27.7572 27.3131C26.5205 28.9033 25.6736 30.8498 25.4195 32.7477C25.3449 33.3051 25.323 33.8631 25.3617 34.4063L11.2164 20.261L11.8212 19.8979C11.8587 19.9147 11.8964 19.9315 11.9379 19.9485L15.4733 21.7162L11.9379 18.1808C11.9379 18.1878 11.9363 18.1948 11.9358 18.2018L11.9302 18.1925L8.5302 20.2326C8.43082 19.7718 8.23379 19.341 7.91895 18.9787C7.55473 18.5592 7.04317 18.2695 6.43457 18.1397L8.47551 14.7379L7.26965 14.0143L6.40715 15.4518L3.06637 12.1111C1.42293 10.4677 1.00418 8.88239 1.2484 7.3931C1.37574 6.61638 1.70332 5.85536 2.1791 5.14724L7.87254 10.8406L2.90989 4.22364C3.19004 3.91974 3.49738 3.63106 3.82801 3.36192C4.52535 2.79411 5.32035 2.31739 6.14793 1.96067C6.13371 1.9745 6.11903 1.98802 6.10496 2.00185L10.5243 4.65356L8.83145 1.26786C8.93559 1.2595 9.03926 1.25325 9.14191 1.24966C9.22832 1.24653 9.31418 1.24536 9.39949 1.24575L9.39926 1.24536ZM5.99356 19.4766C6.41332 19.5235 6.67293 19.6883 6.85746 19.9008C7.02098 20.0891 7.13481 20.3532 7.17988 20.6721C6.8166 20.5983 6.55864 20.4649 6.38082 20.2871C6.20113 20.1074 6.06676 19.8461 5.99356 19.4765V19.4766ZM33.618 25.4127C34.8131 25.4076 36.0714 25.9047 37.3947 27.2158C38.5525 28.3885 38.9439 29.9143 38.7754 31.5428C38.6058 33.1822 37.8379 34.8943 36.711 36.226C36.5339 36.4354 36.3473 36.6338 36.1543 36.8223C35.8587 35.8495 34.3603 34.2173 33.505 32.9376C34.1264 34.6043 34.5589 36.2981 34.4909 38.0634C33.8811 38.3931 33.2382 38.6173 32.5835 38.7079C31.0624 38.9183 29.4413 38.4686 27.7952 36.8392C26.9047 35.9325 26.5993 34.5322 26.8132 32.9343C27.0288 31.3241 27.7839 29.5692 28.8672 28.1763C29.9506 26.7833 31.3472 25.7686 32.7939 25.4936C33.0652 25.4421 33.3398 25.4138 33.6179 25.4126L33.618 25.4127ZM34.2594 26.9596C33.4743 26.9234 32.6361 27.0897 31.8174 27.4441C30.9987 27.7985 30.2242 28.3303 29.561 28.9935C28.4793 30.0752 27.7642 31.4351 27.5732 32.7738C27.3822 34.1126 27.7308 35.3207 28.5424 36.1323C28.9746 36.5627 29.5233 36.8666 30.1525 37.024C30.7817 37.1814 31.4771 37.1888 32.1933 37.0458C31.2912 37.0304 30.4919 36.7121 29.9157 36.1389C29.2125 35.4356 28.8958 34.4035 29.0352 33.2695C29.1747 32.1355 29.759 30.9925 30.6594 30.092C31.5599 29.1915 32.7029 28.6072 33.8369 28.4677C34.971 28.3282 36.0032 28.6449 36.7064 29.3481C37.28 29.924 37.5986 30.7232 37.6143 31.6252C37.7571 30.9091 37.7495 30.2138 37.592 29.5847C37.4344 28.9557 37.1305 28.4071 36.7 27.975C36.0834 27.3584 35.2327 27.0044 34.2596 26.9596H34.2594Z" fill="#705C58"/>
</svg>
