<svg width="110" height="40" viewBox="0 0 110 40" fill="none" xmlns="http://www.w3.org/2000/svg">
<path d="M30.6007 1.24536C29.322 1.25106 28.1789 1.64145 27.3214 2.4988L5.76793 24.0524C6.09801 24.0139 6.42574 24.0045 6.74918 24.0233C6.99168 24.0374 7.23176 24.0674 7.46871 24.1124C8.54996 24.3179 9.54816 24.8137 10.4362 25.4963C12.5586 23.6127 21.521 16.144 21.521 16.144C18.3534 19.7953 14.6261 23.1668 12.1041 27.1408C12.1504 27.1982 12.1975 27.2549 12.2428 27.3131C13.4795 28.9033 14.3264 30.8498 14.5805 32.7477C14.6551 33.3051 14.677 33.8631 14.6383 34.4063L28.7836 20.261L28.1788 19.8979C28.1413 19.9147 28.1036 19.9315 28.0621 19.9485L24.5267 21.7162L28.0621 18.1808C28.0621 18.1878 28.0637 18.1948 28.0642 18.2018L28.0698 18.1925L31.4698 20.2326C31.5692 19.7718 31.7662 19.341 32.0811 18.9787C32.4453 18.5592 32.9568 18.2695 33.5654 18.1397L31.5245 14.7379L32.7304 14.0143L33.5929 15.4518L36.9336 12.1111C38.5771 10.4677 38.9958 8.88239 38.7516 7.3931C38.6243 6.61638 38.2967 5.85536 37.8209 5.14724L32.1275 10.8406L37.0901 4.22364C36.81 3.91974 36.5026 3.63106 36.172 3.36192C35.4746 2.79411 34.6796 2.31739 33.8521 1.96067C33.8663 1.9745 33.881 1.98802 33.895 2.00185L29.4757 4.65356L31.1686 1.26786C31.0644 1.2595 30.9607 1.25325 30.8581 1.24966C30.7717 1.24653 30.6858 1.24536 30.6005 1.24575L30.6007 1.24536ZM34.0064 19.4766C33.5867 19.5235 33.3271 19.6883 33.1425 19.9008C32.979 20.0891 32.8652 20.3532 32.8201 20.6721C33.1834 20.5983 33.4414 20.4649 33.6192 20.2871C33.7989 20.1074 33.9332 19.8461 34.0064 19.4765V19.4766ZM6.38199 25.4127C5.18691 25.4076 3.92863 25.9047 2.60527 27.2158C1.44746 28.3885 1.05605 29.9143 1.22465 31.5428C1.39418 33.1822 2.16215 34.8943 3.28902 36.226C3.46613 36.4354 3.65269 36.6338 3.84566 36.8223C4.14129 35.8495 5.63973 34.2173 6.49504 32.9376C5.87355 34.6043 5.44113 36.2981 5.5091 38.0634C6.11894 38.3931 6.76176 38.6173 7.41652 38.7079C8.93762 38.9183 10.5587 38.4686 12.2048 36.8392C13.0953 35.9325 13.4007 34.5322 13.1868 32.9343C12.9712 31.3241 12.2161 29.5692 11.1328 28.1763C10.0494 26.7833 8.65277 25.7686 7.20605 25.4936C6.9348 25.4421 6.66019 25.4138 6.38207 25.4126L6.38199 25.4127ZM5.74058 26.9596C6.52569 26.9234 7.36391 27.0897 8.18262 27.4441C9.00133 27.7985 9.77583 28.3303 10.439 28.9935C11.5207 30.0752 12.2358 31.4351 12.4268 32.7738C12.6178 34.1126 12.2692 35.3207 11.4576 36.1323C11.0254 36.5627 10.4767 36.8666 9.84753 37.024C9.21834 37.1814 8.52285 37.1888 7.80668 37.0458C8.70879 37.0304 9.50813 36.7121 10.0843 36.1389C10.7875 35.4356 11.1042 34.4035 10.9648 33.2695C10.8253 32.1355 10.2411 30.9925 9.34058 30.092C8.4401 29.1915 7.29711 28.6072 6.16308 28.4677C5.02904 28.3282 3.99684 28.6449 3.29355 29.3481C2.72001 29.924 2.40142 30.7232 2.38574 31.6252C2.24288 30.9091 2.25047 30.2138 2.40802 29.5847C2.56558 28.9557 2.86953 28.4071 3.29996 27.975C3.91665 27.3584 4.76727 27.0044 5.74035 26.9596H5.74058Z" fill="#705C58"/>
<path d="M79.3993 1.24536C80.678 1.25106 81.8211 1.64145 82.6786 2.4988L104.232 24.0524C103.902 24.0139 103.574 24.0045 103.251 24.0233C103.008 24.0374 102.768 24.0674 102.531 24.1124C101.45 24.3179 100.452 24.8137 99.5638 25.4963C97.4414 23.6127 88.479 16.144 88.479 16.144C91.6466 19.7953 95.3739 23.1668 97.8959 27.1408C97.8496 27.1982 97.8025 27.2549 97.7572 27.3131C96.5205 28.9033 95.6736 30.8498 95.4195 32.7477C95.3449 33.3051 95.323 33.8631 95.3617 34.4063L81.2164 20.261L81.8212 19.8979C81.8587 19.9147 81.8964 19.9315 81.9379 19.9485L85.4733 21.7162L81.9379 18.1808C81.9379 18.1878 81.9363 18.1948 81.9358 18.2018L81.9302 18.1925L78.5302 20.2326C78.4308 19.7718 78.2338 19.341 77.9189 18.9787C77.5547 18.5592 77.0432 18.2695 76.4346 18.1397L78.4755 14.7379L77.2696 14.0143L76.4071 15.4518L73.0664 12.1111C71.4229 10.4677 71.0042 8.88239 71.2484 7.3931C71.3757 6.61638 71.7033 5.85536 72.1791 5.14724L77.8725 10.8406L72.9099 4.22364C73.19 3.91974 73.4974 3.63106 73.828 3.36192C74.5254 2.79411 75.3204 2.31739 76.1479 1.96067C76.1337 1.9745 76.119 1.98802 76.105 2.00185L80.5243 4.65356L78.8314 1.26786C78.9356 1.2595 79.0393 1.25325 79.1419 1.24966C79.2283 1.24653 79.3142 1.24536 79.3995 1.24575L79.3993 1.24536ZM75.9936 19.4766C76.4133 19.5235 76.6729 19.6883 76.8575 19.9008C77.021 20.0891 77.1348 20.3532 77.1799 20.6721C76.8166 20.5983 76.5586 20.4649 76.3808 20.2871C76.2011 20.1074 76.0668 19.8461 75.9936 19.4765V19.4766ZM103.618 25.4127C104.813 25.4076 106.071 25.9047 107.395 27.2158C108.553 28.3885 108.944 29.9143 108.775 31.5428C108.606 33.1822 107.838 34.8943 106.711 36.226C106.534 36.4354 106.347 36.6338 106.154 36.8223C105.859 35.8495 104.36 34.2173 103.505 32.9376C104.126 34.6043 104.559 36.2981 104.491 38.0634C103.881 38.3931 103.238 38.6173 102.583 38.7079C101.062 38.9183 99.4413 38.4686 97.7952 36.8392C96.9047 35.9325 96.5993 34.5322 96.8132 32.9343C97.0288 31.3241 97.7839 29.5692 98.8672 28.1763C99.9506 26.7833 101.347 25.7686 102.794 25.4936C103.065 25.4421 103.34 25.4138 103.618 25.4126L103.618 25.4127ZM104.259 26.9596C103.474 26.9234 102.636 27.0897 101.817 27.4441C100.999 27.7985 100.224 28.3303 99.561 28.9935C98.4793 30.0752 97.7642 31.4351 97.5732 32.7738C97.3822 34.1126 97.7308 35.3207 98.5424 36.1323C98.9746 36.5627 99.5233 36.8666 100.152 37.024C100.782 37.1814 101.477 37.1888 102.193 37.0458C101.291 37.0304 100.492 36.7121 99.9157 36.1389C99.2125 35.4356 98.8958 34.4035 99.0352 33.2695C99.1747 32.1355 99.7589 30.9925 100.659 30.092C101.56 29.1915 102.703 28.6072 103.837 28.4677C104.971 28.3282 106.003 28.6449 106.706 29.3481C107.28 29.924 107.599 30.7232 107.614 31.6252C107.757 30.9091 107.75 30.2138 107.592 29.5847C107.434 28.9557 107.13 28.4071 106.7 27.975C106.083 27.3584 105.233 27.0044 104.26 26.9596H104.259Z" fill="#705C58"/>
</svg>
