<svg width="80" height="80" viewBox="0 0 80 80" fill="none" xmlns="http://www.w3.org/2000/svg">
<g clip-path="url(#clip0_2_544)">
<path d="M56.9628 50.3773C56.9494 50.3666 56.9334 50.3505 56.92 50.3345C77.5034 29.0313 82.0311 3.95234 79.2668 1.14795C75.9326 -2.23177 51.1667 2.67859 29.7833 22.8338C29.7672 22.8177 29.7458 22.799 29.7271 22.7776L29.7217 22.7722C26.54 19.5504 21.8116 19.0447 18.6139 22.2585L1.90262 39.0366C-1.29246 42.2478 -0.369257 45.9646 3.96309 47.3026L6.10385 47.9555C10.2248 49.2266 15.9915 47.894 19.2962 44.9879C20.2783 48.3864 22.5609 51.4155 25.4054 54.3002C28.2473 57.1795 31.239 59.4942 34.608 60.5245C31.6645 63.7918 30.2596 69.5344 31.4718 73.6687L32.1006 75.8121C33.3797 80.1605 37.0859 81.1372 40.3399 77.9823L57.3375 61.4931C60.5941 58.3355 60.1525 53.6125 56.9682 50.3826L56.9628 50.3773ZM54.0407 13.7249C57.2598 10.5485 62.4458 10.5806 65.6195 13.7971C68.7958 17.0163 68.7611 22.1996 65.5419 25.3786C62.3254 28.5523 57.1394 28.5175 53.9658 25.301C50.7867 22.0872 50.8242 16.8986 54.0407 13.7249Z" fill="#382D2A"/>
<path d="M21.3674 58.2846C18.753 55.6408 16.5427 52.8953 15.0495 49.9785C14.6615 50.2194 14.2869 50.4843 13.9551 50.8161C10.7948 53.9309 11.4638 59.7858 15.4536 63.8238C19.4354 67.8592 25.2823 68.6058 28.4426 65.491C28.7423 65.1939 28.9778 64.8487 29.2106 64.5035C26.4517 62.9836 23.8641 60.8134 21.3674 58.2846Z" fill="#382D2A"/>
</g>
<defs>
<clipPath id="clip0_2_544">
<rect width="80" height="80" fill="white"/>
</clipPath>
</defs>
</svg>
