<svg width="100" height="100" viewBox="0 0 100 100" fill="none" xmlns="http://www.w3.org/2000/svg">
<g opacity="0.8" clip-path="url(#clip0_2_368)">
<path d="M85.1465 58.1573C91.4961 58.1573 96.6445 53.0122 96.6445 46.6626C96.6445 40.3129 91.4959 35.1643 85.1465 35.1643C78.7984 35.1643 73.6498 40.3129 73.6498 46.6626C73.65 53.0122 78.7984 58.1573 85.1465 58.1573Z" fill="white"/>
<path d="M99.8686 69.2366C99.3563 66.1581 96.8115 61.8495 94.8854 59.9247C94.6316 59.6696 93.4977 59.6106 93.1914 59.8005C90.8496 61.2407 88.0988 62.0884 85.1465 62.0884C82.1975 62.0884 79.4465 61.2407 77.1045 59.8005C76.7969 59.6106 75.6645 59.6696 75.4107 59.9247C74.8723 60.4632 74.2848 61.18 73.7119 62.0112C75.2617 64.9292 76.4908 68.0288 76.9344 70.6979C77.3777 73.3737 77.2338 75.9069 76.5168 78.2163C79.0633 79.1376 82.117 79.5419 85.1463 79.5419C93.0477 79.5419 101.134 76.8022 99.8686 69.2366Z" fill="white"/>
<path d="M49.7045 53.3069C59.9949 53.3069 68.3379 44.9639 68.3379 34.6737C68.3379 24.3865 59.9949 16.0436 49.7045 16.0436C39.4158 16.0436 31.076 24.3865 31.076 34.6737C31.076 44.9639 39.4156 53.3069 49.7045 53.3069Z" fill="white"/>
<path d="M65.4822 56.1608C65.0779 55.7582 63.2418 55.6553 62.7426 55.9643C58.9441 58.3014 54.4865 59.6696 49.7045 59.6696C44.926 59.6696 40.4662 58.3014 36.6697 55.9643C36.1707 55.6551 34.3346 55.7582 33.9303 56.1608C30.8012 59.2866 26.6772 66.2744 25.8475 71.2561C23.8018 83.5268 36.9088 87.9569 49.7045 87.9569C62.5037 87.9569 75.6106 83.5268 73.5649 71.2561C72.7352 66.2744 68.6111 59.2866 65.4822 56.1608Z" fill="white"/>
<path d="M14.8533 58.1573C21.2014 58.1573 26.3498 53.0122 26.3498 46.6626C26.3498 40.3129 21.2014 35.1643 14.8533 35.1643C8.50352 35.1643 3.35508 40.3129 3.35508 46.6626C3.35508 53.0122 8.50352 58.1573 14.8533 58.1573Z" fill="white"/>
<path d="M22.4793 70.6979C22.9508 67.8946 24.2811 64.5938 25.9488 61.5417C25.484 60.9067 25.0193 60.3536 24.5904 59.9247C24.3367 59.6696 23.2043 59.6106 22.8967 59.8005C20.5547 61.2407 17.8037 62.0884 14.8533 62.0884C11.9025 62.0884 9.14981 61.2407 6.80977 59.8005C6.50352 59.6106 5.36797 59.6696 5.11426 59.9247C3.1832 61.8493 0.645119 66.1581 0.131056 69.2366C-1.13223 76.8022 6.95215 79.5417 14.8533 79.5417C17.673 79.5417 20.5205 79.1946 22.9508 78.4011C22.185 76.0446 22.0229 73.4522 22.4793 70.6979Z" fill="white"/>
</g>
<defs>
<clipPath id="clip0_2_368">
<rect width="100" height="100" fill="white"/>
</clipPath>
</defs>
</svg>
