<svg width="40" height="40" viewBox="0 0 40 40" fill="none" xmlns="http://www.w3.org/2000/svg">
<path d="M16.2075 34.125C13.785 34.1113 11.3791 33.7255 9.07374 32.9813C6.78374 32.2413 4.01874 31.0563 2.90999 28.425C2.89748 28.3954 2.88704 28.3649 2.87874 28.3338C2.19175 25.174 2.52571 21.8778 3.83249 18.92C5.73499 13.91 8.46999 10.4963 11.9575 8.77501C14.9239 7.35493 18.3176 7.10933 21.4575 8.08751C24.6153 8.99921 27.3121 11.0704 29.0075 13.8863C29.5592 14.8011 30.003 15.7767 30.33 16.7938C31.2682 19.8055 31.1076 23.0524 29.8766 25.9568C28.6456 28.8612 26.4242 31.2347 23.6075 32.655L23.5825 32.6663C21.2496 33.6511 18.7396 34.1475 16.2075 34.125Z" fill="#261F1D"/>
<path d="M28.4 14.2412C26.7692 11.6021 24.2275 9.65232 21.2559 8.76107C18.2843 7.86983 15.0891 8.09892 12.275 9.40499C8.375 11.3262 5.98 15.25 4.49125 19.1675C3.25681 21.993 2.93095 25.1324 3.55875 28.1512C4.5375 30.4762 7.0325 31.5812 9.28625 32.31C13.8439 33.8846 18.8138 33.7818 23.3025 32.02C25.9654 30.6705 28.0645 28.4219 29.2279 25.6726C30.3914 22.9234 30.544 19.851 29.6588 17C29.3473 16.0348 28.9249 15.109 28.4 14.2412Z" fill="#C58173"/>
<path d="M19.7275 8.40002C20.5775 8.85706 21.3593 9.43098 22.05 10.105C22.7312 10.7477 23.3353 11.4676 23.85 12.25C25.3414 14.56 25.9674 17.3233 25.6171 20.0505C25.2669 22.7777 23.963 25.2931 21.9362 27.1513C18.3885 29.8244 14.0038 31.1447 9.57 30.875C7.75079 30.9225 5.95639 30.4452 4.40125 29.5C5.74589 30.8582 7.43372 31.8263 9.285 32.3013C13.8432 33.8756 18.8136 33.7723 23.3025 32.01C25.9628 30.6604 28.0601 28.4134 29.2234 25.6665C30.3866 22.9195 30.5408 19.8497 29.6587 17C29.3477 16.0331 28.9252 15.1056 28.4 14.2363C27.4631 12.6937 26.2024 11.3729 24.705 10.3652C23.2077 9.35756 21.5094 8.68705 19.7275 8.40002Z" fill="black" fill-opacity="0.313726"/>
<path d="M29.345 16.7363L28.0175 13.1175L28.2075 12.8225C28.9576 11.8883 29.8948 11.1212 30.9588 10.5706C32.0229 10.0199 33.1903 9.69785 34.3862 9.62503C34.808 9.5544 35.2404 9.58414 35.6484 9.71184C36.0565 9.83954 36.4288 10.0616 36.735 10.36C37.2115 11.0387 37.4775 11.8428 37.4998 12.6718C37.522 13.5008 37.2995 14.318 36.86 15.0213C36.4312 15.3863 35.9212 15.1763 35.3325 14.9338C34.5231 14.4737 33.5647 14.3524 32.6662 14.5963C31.7573 14.9986 30.8986 15.5058 30.1075 16.1075L29.345 16.7363Z" fill="#261F1D"/>
<path d="M28.7987 13.2037C30.3275 10.8287 35.1825 9.55999 36.1887 10.8C36.5431 11.3411 36.75 11.9655 36.7888 12.6112C36.8276 13.2569 36.697 13.9015 36.41 14.4812C36.1037 14.74 34.1137 13.1575 32.3787 13.9525C31.4122 14.3787 30.5003 14.9192 29.6625 15.5625L28.7987 13.2037Z" fill="#5E4A46"/>
<path d="M36.75 12.1588C36.7328 12.3762 36.6451 12.5821 36.5 12.745C36.2138 12.9475 34.125 12.1125 32.4525 12.815C31.5496 13.1788 30.6829 13.6266 29.8638 14.1525L29 12.925C28.9288 13.0175 28.855 13.1088 28.7938 13.2038L29.6588 15.5613C30.4967 14.9184 31.4086 14.3783 32.375 13.9525C34.11 13.1575 36.1 14.7413 36.4063 14.4813C36.7804 13.7683 36.9015 12.9495 36.75 12.1588Z" fill="black" fill-opacity="0.313726"/>
<path d="M26.7275 31.475C26.2219 31.4726 25.7264 31.3331 25.2938 31.0713C25.2028 31.0136 25.1263 30.9359 25.0701 30.8441C25.0139 30.7522 24.9795 30.6487 24.9696 30.5415C24.9597 30.4342 24.9745 30.3262 25.0129 30.2256C25.0514 30.125 25.1124 30.0346 25.1913 29.9613C26.1125 29.1063 25.95 27.245 24.6788 24.1C23.0708 20.1414 20.9152 16.4281 18.275 13.0688L17.8375 12.5313C15.9475 10.2 14.89 9.01251 13.395 9.65626C13.2317 9.72826 13.0471 9.73541 12.8788 9.67626C12.729 9.62298 12.6014 9.52126 12.516 9.38721C12.4306 9.25317 12.3925 9.09447 12.4075 8.93626C12.4112 8.38067 12.5896 7.84031 12.9173 7.39166C13.2451 6.94301 13.7056 6.60878 14.2338 6.43626C20.1288 4.58501 27.0588 7.45376 30.365 13.1163C32.1095 15.7971 32.8834 18.9945 32.5579 22.1764C32.2325 25.3583 30.8273 28.3328 28.5763 30.605C28.3512 30.8772 28.0687 31.0963 27.7491 31.2467C27.4296 31.3971 27.0807 31.475 26.7275 31.475Z" fill="#261F1D"/>
<path d="M29.765 13.4788C26.71 8.23877 20.1025 5.31877 14.4275 7.11252C13.1687 7.42252 13.0962 9.03127 13.1125 9.00877C15.3325 8.05002 16.8037 10.1575 18.82 12.6213C21.5076 16.0339 23.6997 19.8091 25.3312 23.835C26.4437 26.585 27.0812 29.1688 25.6687 30.475C26.0433 30.7076 26.4878 30.8007 26.9242 30.7381C27.3606 30.6754 27.761 30.461 28.055 30.1325C30.2036 27.9719 31.5456 25.1394 31.8569 22.1082C32.1681 19.0771 31.4297 16.0309 29.765 13.4788Z" fill="#5E4A46"/>
<path d="M29.5612 12.9325C29.8002 14.6752 29.6411 16.4495 29.0959 18.1219C28.5508 19.7944 27.6338 21.3215 26.4137 22.5887C25.845 23.1962 25.3225 22.81 24.835 22.6675C25.0075 23.0587 25.1737 23.45 25.335 23.8375C26.4475 26.5875 27.085 29.17 25.6737 30.4775C26.0483 30.7101 26.4928 30.8032 26.9292 30.7406C27.3656 30.6779 27.766 30.4635 28.06 30.135C32.6112 25.2287 32.9462 18.6487 29.5612 12.9325Z" fill="black" fill-opacity="0.313726"/>
</svg>
