<svg width="80" height="80" viewBox="0 0 80 80" fill="none" xmlns="http://www.w3.org/2000/svg">
<path fill-rule="evenodd" clip-rule="evenodd" d="M40 6.66663L12.6333 18.0666V36.8333C12.6333 53.7 24.3 69.4999 40 73.4999C55.7 69.6666 67.3667 53.8666 67.3667 37V18.0666L40 6.66663ZM40 19.3C42.0282 19.3004 43.9935 20.0041 45.561 21.2912C47.1285 22.5782 48.2013 24.3689 48.5965 26.3582C48.9918 28.3475 48.685 30.4123 47.7286 32.2008C46.7721 33.9893 45.2251 35.3909 43.3512 36.1666C41.4772 36.9424 39.3922 37.0444 37.4515 36.4553C35.5108 35.8662 33.8343 34.6224 32.7078 32.9358C31.5813 31.2492 31.0745 29.2242 31.2736 27.2058C31.4728 25.1874 32.3656 23.3005 33.8 21.8666C34.6143 21.0526 35.5809 20.407 36.6447 19.9666C37.7085 19.5262 38.8486 19.2997 40 19.3ZM53.7 56.4666C50.2073 61.0133 45.437 64.414 40 66.2333C34.563 64.414 29.7927 61.0133 26.3 56.4666V48.9666C26.3 43.4 35.4333 40.5666 40 40.5666C44.5667 40.5666 53.7 43.4 53.7 48.9666V56.4666Z" fill="#EADCD8"/>
<path fill-rule="evenodd" clip-rule="evenodd" d="M40 6.66663V19.3C42.3251 19.3 44.5549 20.2236 46.199 21.8677C47.843 23.5117 48.7667 25.7416 48.7667 28.0666C48.7667 30.3917 47.843 32.6215 46.199 34.2656C44.5549 35.9097 42.3251 36.8333 40 36.8333V40.5666C44.5667 40.5666 53.7 43.4 53.7 48.9666V56.4666C50.2073 61.0133 45.437 64.414 40 66.2333V73.3333C55.7 69.5 67.3667 53.7 67.3667 36.8333V18.0666L40 6.66663Z" fill="#382D2A"/>
</svg>
