<svg width="40" height="40" viewBox="0 0 40 40" fill="none" xmlns="http://www.w3.org/2000/svg">
<path d="M16.125 36.9688H13.9688C13.7656 36.9688 13.5469 36.9531 13.3594 36.9531C13.3438 36.9531 13.3438 36.9531 13.3438 36.9531C13.1719 36.9688 13 36.9688 12.8281 36.9688C8.10938 36.9688 3.45312 33.1875 1.40625 29.2812C1.0625 28.6094 0.765625 27.8906 0.53125 27.1562C0.1875 26.0312 0 24.8281 0 23.5781C0 21.875 0.34375 20.25 0.96875 18.7812C1.60938 16.9062 2.84375 15 5.09375 13.2969C8.96875 10.3594 7.25 5.90625 7.25 5.90625C7.75 5.8125 8.23438 5.76563 8.71875 5.76563C12.375 5.76563 15.5312 9.48438 15.9375 12.7969C15.9844 13.0938 16 13.3906 16 13.7031C16 15.0156 15.4844 16.0938 14.75 17.1094C13.2344 18.4531 12.0312 20.1406 11.3125 22.0469C11.0156 22.8125 10.8125 23.6094 10.6719 24.4375C10.5625 25.1094 10.5 25.8125 10.5 26.5312C10.4844 30.875 12.7344 34.75 16.125 36.9688ZM39.5312 22.2188C39.5312 22.2344 39.5312 22.25 39.5312 22.2656C39.5312 22.2969 39.5312 22.3125 39.5312 22.3281C39.5312 23.25 38.7812 24 37.8594 24H34.9375C34.5 24.3438 34.0625 24.7344 33.5938 25.0938C33.4531 25.2031 33.3125 25.2969 33.1719 25.3906C33.0156 25.5156 32.8594 25.6094 32.6875 25.7031C32.5625 25.75 32.4375 25.8281 32.3281 25.875C31.9062 26.0625 31.4688 26.1875 31 26.1875C30.9687 26.1875 30.9531 26.1875 30.9062 26.1875C30.7656 26.1875 30.6094 26.1719 30.4688 26.1562C29.1406 26.0156 28.5 25.2187 27.9062 24.0938C27.8906 24.0781 27.875 24.0625 27.8594 24.0469C27.4375 23.5469 27.0625 23.2812 26.75 23.1562C25.7188 22.5 24.5 22.0938 23.2031 22.0781L23.2969 22.7187C26.5625 22.8281 29.1875 25.5 29.1875 28.7969C29.1875 30.6562 28.3281 32.3281 27.0156 33.4375C28.0469 33.5938 28.9219 34.2031 29.4688 35.0312C29.6406 35.2969 29.7812 35.6094 29.8906 35.9219C30 36.25 30.0625 36.625 30.0625 36.9844H29.3125H28.5H26.5938H22.8906H18.1719C15.6094 35.7656 13.4688 33.6562 12.3594 31.0469C11.8906 29.9687 11.5938 28.7812 11.4844 27.5625C11.375 26.9062 11.3281 26.2188 11.3281 25.5469C11.3281 22.6406 14.5938 16.625 19.4688 15.25C19.4688 15.25 23.1875 13.8281 23.625 13.6563C27.4062 12.0938 26.2656 10.0156 27.2188 8.53125C28.3594 6.73438 29.9219 6.59375 29.9219 6.59375L32.0312 4.03125L32.7656 3.17188C33.3281 3.17188 33.7812 5.15625 33.8594 6.82813C38.1406 8.82813 38.7656 13.2187 38.7656 14.9531C38.7656 16.8281 37.7812 17.75 36.3281 18.125C35.6719 18.2812 34.7656 18.3281 33.9375 18.3281C32.9688 18.3281 32.1406 18.2656 32.1406 18.2656C32.1406 18.4063 33.2812 20.625 33.2812 20.625H36.4375C36.625 20.6094 36.8438 20.5938 37.0312 20.5938C37.2188 20.5938 37.4062 20.6094 37.6094 20.625H37.8594C38.3281 20.625 38.75 20.8281 39.0625 21.1406C39.2656 21.3281 39.3906 21.5156 39.4219 21.7344C39.5 21.9062 39.5312 22.0625 39.5312 22.2188ZM32.3594 11.25C32.3594 11.8906 32.875 12.4219 33.5312 12.4219C34.1875 12.4219 34.7031 11.9062 34.7031 11.25C34.7031 10.6094 34.1875 10.0781 33.5312 10.0781C32.875 10.0781 32.3438 10.6094 32.3594 11.25Z" fill="#705C58"/>
</svg>
