<svg width="40" height="40" viewBox="0 0 40 40" fill="none" xmlns="http://www.w3.org/2000/svg">
<path d="M34.0477 2.36523C30.378 3.20008 26.1 4.78469 22.4516 7.17578C21.4125 5.77648 19.0427 4.69398 17.3449 3.45156C18.503 4.78023 19.9384 6.01656 20.8545 7.42602C18.4631 7.21297 12.637 7.54031 12.4917 7.84531C14.4554 7.91609 17.5823 7.96422 19.7191 8.20328C17.8544 8.83883 16.3551 9.72047 15.0752 10.5517L21.2534 9.29578L20.0088 38.5938H21.4162L22.6613 9.28805C25.9023 10.3867 28.6544 12.0802 31.4095 13.8496C29.548 11.4905 27.846 9.41289 24.371 8.14422C26.6567 5.86547 30.7281 4.25633 34.0477 2.36531L34.0477 2.36523ZM10.3806 9.34906C10.2779 10.8318 9.97477 12.2866 9.65399 13.7164C7.57141 12.0514 4.53039 12.0924 2.19391 11.677C4.65071 12.5822 7.115 13.4776 9.09977 14.9898C6.37367 18.0292 5.24477 21.1135 4.11578 24.3255C6.05282 21.7595 7.66914 19.1019 10.0472 16.6618L14.0108 38.5938H15.4397L11.3681 16.0637C14.3463 16.5818 16.6808 17.7437 19.0976 18.823C17.0831 17.4921 15.059 16.086 12.3054 15.0435C14.3733 14.1206 16.6035 13.2385 18.9162 12.8021C16.4792 12.3884 12.9206 12.5047 11.2191 13.5777C11.2688 12.1199 11.067 10.8554 10.3806 9.34906ZM24.0396 21.0507C25.6308 21.7278 27.1962 22.4848 28.6163 23.2959C26.5138 24.1816 24.0193 26.545 24.1541 26.7695C25.7623 25.9242 27.4369 25.1783 29.3315 24.7625L27.3935 38.5938H28.8135L30.7391 24.8519C33.2218 26.0613 35.5331 27.4989 37.462 29.4467C36.0863 27.6321 35.1138 26.0852 33.3761 24.7609C34.8691 24.6675 36.2566 24.7838 37.8061 25.0077C35.731 24.4983 34.2798 23.646 31.7506 23.7216C31.7495 23.721 31.7484 23.7204 31.7473 23.7198C31.7686 23.7134 37.1968 22.0842 37.2874 21.9586C37.3736 21.8393 31.6372 22.0603 29.7734 22.5151C27.512 21.4513 25.5827 21.2215 24.0396 21.0507Z" fill="#8D6E68"/>
</svg>
